<svg width="787" height="519" viewBox="0 0 787 519" fill="none" xmlns="http://www.w3.org/2000/svg">
<path d="M14.5 3L5.5 15.5V45.5H487.5L754.5 38H781.5V15.5L770 3H14.5Z" fill="white" stroke="white"/>
<path d="M5 45L784 46" stroke="black" stroke-width="15"/>
<g filter="url(#filter0_d_66_15)">
<path d="M7 493.065V51H780V498.044L767 508H16L7 493.065Z" fill="#FFD1EF"/>
<path d="M7 493.065V51H780V498.044L767 508H16L7 493.065Z" stroke="black" stroke-width="5"/>
</g>
<g filter="url(#filter1_d_66_15)">
<path d="M687 66L705.41 115.751H764.987L716.788 146.498L735.198 196.249L687 165.502L638.802 196.249L657.212 146.498L609.013 115.751H668.59L687 66Z" fill="#FFF85D"/>
</g>
<g filter="url(#filter2_d_66_15)">
<path d="M607.616 156.015L622.156 174.514L644.484 166.394L631.143 185.948L645.683 204.447L622.897 198.033L609.556 217.586L608.815 194.068L586.029 187.653L608.357 179.533L607.616 156.015Z" fill="white"/>
</g>
<g filter="url(#filter3_d_66_15)">
<path d="M715 175L723.756 199.875H752.091L729.168 215.249L737.924 240.125L715 224.751L692.076 240.125L700.832 215.249L677.909 199.875H706.244L715 175Z" fill="#95FADC"/>
</g>
<g filter="url(#filter4_d_66_15)">
<path d="M605 58L613.756 82.8754H642.091L619.168 98.2492L627.924 123.125L605 107.751L582.076 123.125L590.832 98.2492L567.909 82.8754H596.244L605 58Z" fill="#D5AAFF"/>
</g>
<g filter="url(#filter5_d_66_15)">
<path d="M104 336L122.41 385.751H181.987L133.788 416.498L152.198 466.249L104 435.502L55.8016 466.249L74.2118 416.498L26.0134 385.751H85.5899L104 336Z" fill="#D5AAFF"/>
</g>
<g filter="url(#filter6_d_66_15)">
<path d="M173.5 402L184.838 433.094H221.528L191.845 452.312L203.183 483.406L173.5 464.188L143.817 483.406L155.155 452.312L125.472 433.094H162.162L173.5 402Z" fill="#95FADC"/>
</g>
<g filter="url(#filter7_d_66_15)">
<path d="M65 292L73.756 316.875H102.091L79.1676 332.249L87.9236 357.125L65 341.751L42.0764 357.125L50.8324 332.249L27.9088 316.875H56.244L65 292Z" fill="#FFF7F7"/>
</g>
<g filter="url(#filter8_d_66_15)">
<path d="M61 428L69.756 452.875H98.0912L75.1676 468.249L83.9236 493.125L61 477.751L38.0764 493.125L46.8324 468.249L23.9088 452.875H52.244L61 428Z" fill="#FFF85D"/>
</g>
<path d="M15 3L4 17V495L15 510H769L783 495V17L776 10L769 3H15Z" stroke="black" stroke-width="5"/>
<defs>
<filter id="filter0_d_66_15" x="0.5" y="48.5" width="786" height="470" filterUnits="userSpaceOnUse" color-interpolation-filters="sRGB">
<feFlood flood-opacity="0" result="BackgroundImageFix"/>
<feColorMatrix in="SourceAlpha" type="matrix" values="0 0 0 0 0 0 0 0 0 0 0 0 0 0 0 0 0 0 127 0" result="hardAlpha"/>
<feOffset dy="4"/>
<feGaussianBlur stdDeviation="2"/>
<feComposite in2="hardAlpha" operator="out"/>
<feColorMatrix type="matrix" values="0 0 0 0 0 0 0 0 0 0 0 0 0 0 0 0 0 0 0.25 0"/>
<feBlend mode="normal" in2="BackgroundImageFix" result="effect1_dropShadow_66_15"/>
<feBlend mode="normal" in="SourceGraphic" in2="effect1_dropShadow_66_15" result="shape"/>
</filter>
<filter id="filter1_d_66_15" x="605.013" y="66" width="163.973" height="138.249" filterUnits="userSpaceOnUse" color-interpolation-filters="sRGB">
<feFlood flood-opacity="0" result="BackgroundImageFix"/>
<feColorMatrix in="SourceAlpha" type="matrix" values="0 0 0 0 0 0 0 0 0 0 0 0 0 0 0 0 0 0 127 0" result="hardAlpha"/>
<feOffset dy="4"/>
<feGaussianBlur stdDeviation="2"/>
<feComposite in2="hardAlpha" operator="out"/>
<feColorMatrix type="matrix" values="0 0 0 0 0 0 0 0 0 0 0 0 0 0 0 0 0 0 0.25 0"/>
<feBlend mode="normal" in2="BackgroundImageFix" result="effect1_dropShadow_66_15"/>
<feBlend mode="normal" in="SourceGraphic" in2="effect1_dropShadow_66_15" result="shape"/>
</filter>
<filter id="filter2_d_66_15" x="582.03" y="156.015" width="67.6532" height="69.5713" filterUnits="userSpaceOnUse" color-interpolation-filters="sRGB">
<feFlood flood-opacity="0" result="BackgroundImageFix"/>
<feColorMatrix in="SourceAlpha" type="matrix" values="0 0 0 0 0 0 0 0 0 0 0 0 0 0 0 0 0 0 127 0" result="hardAlpha"/>
<feOffset dy="4"/>
<feGaussianBlur stdDeviation="2"/>
<feComposite in2="hardAlpha" operator="out"/>
<feColorMatrix type="matrix" values="0 0 0 0 0 0 0 0 0 0 0 0 0 0 0 0 0 0 0.25 0"/>
<feBlend mode="normal" in2="BackgroundImageFix" result="effect1_dropShadow_66_15"/>
<feBlend mode="normal" in="SourceGraphic" in2="effect1_dropShadow_66_15" result="shape"/>
</filter>
<filter id="filter3_d_66_15" x="673.909" y="175" width="82.1824" height="73.1246" filterUnits="userSpaceOnUse" color-interpolation-filters="sRGB">
<feFlood flood-opacity="0" result="BackgroundImageFix"/>
<feColorMatrix in="SourceAlpha" type="matrix" values="0 0 0 0 0 0 0 0 0 0 0 0 0 0 0 0 0 0 127 0" result="hardAlpha"/>
<feOffset dy="4"/>
<feGaussianBlur stdDeviation="2"/>
<feComposite in2="hardAlpha" operator="out"/>
<feColorMatrix type="matrix" values="0 0 0 0 0 0 0 0 0 0 0 0 0 0 0 0 0 0 0.25 0"/>
<feBlend mode="normal" in2="BackgroundImageFix" result="effect1_dropShadow_66_15"/>
<feBlend mode="normal" in="SourceGraphic" in2="effect1_dropShadow_66_15" result="shape"/>
</filter>
<filter id="filter4_d_66_15" x="563.909" y="58" width="82.1824" height="73.1246" filterUnits="userSpaceOnUse" color-interpolation-filters="sRGB">
<feFlood flood-opacity="0" result="BackgroundImageFix"/>
<feColorMatrix in="SourceAlpha" type="matrix" values="0 0 0 0 0 0 0 0 0 0 0 0 0 0 0 0 0 0 127 0" result="hardAlpha"/>
<feOffset dy="4"/>
<feGaussianBlur stdDeviation="2"/>
<feComposite in2="hardAlpha" operator="out"/>
<feColorMatrix type="matrix" values="0 0 0 0 0 0 0 0 0 0 0 0 0 0 0 0 0 0 0.25 0"/>
<feBlend mode="normal" in2="BackgroundImageFix" result="effect1_dropShadow_66_15"/>
<feBlend mode="normal" in="SourceGraphic" in2="effect1_dropShadow_66_15" result="shape"/>
</filter>
<filter id="filter5_d_66_15" x="22.0134" y="336" width="163.973" height="138.249" filterUnits="userSpaceOnUse" color-interpolation-filters="sRGB">
<feFlood flood-opacity="0" result="BackgroundImageFix"/>
<feColorMatrix in="SourceAlpha" type="matrix" values="0 0 0 0 0 0 0 0 0 0 0 0 0 0 0 0 0 0 127 0" result="hardAlpha"/>
<feOffset dy="4"/>
<feGaussianBlur stdDeviation="2"/>
<feComposite in2="hardAlpha" operator="out"/>
<feColorMatrix type="matrix" values="0 0 0 0 0 0 0 0 0 0 0 0 0 0 0 0 0 0 0.25 0"/>
<feBlend mode="normal" in2="BackgroundImageFix" result="effect1_dropShadow_66_15"/>
<feBlend mode="normal" in="SourceGraphic" in2="effect1_dropShadow_66_15" result="shape"/>
</filter>
<filter id="filter6_d_66_15" x="121.472" y="402" width="104.057" height="89.4058" filterUnits="userSpaceOnUse" color-interpolation-filters="sRGB">
<feFlood flood-opacity="0" result="BackgroundImageFix"/>
<feColorMatrix in="SourceAlpha" type="matrix" values="0 0 0 0 0 0 0 0 0 0 0 0 0 0 0 0 0 0 127 0" result="hardAlpha"/>
<feOffset dy="4"/>
<feGaussianBlur stdDeviation="2"/>
<feComposite in2="hardAlpha" operator="out"/>
<feColorMatrix type="matrix" values="0 0 0 0 0 0 0 0 0 0 0 0 0 0 0 0 0 0 0.25 0"/>
<feBlend mode="normal" in2="BackgroundImageFix" result="effect1_dropShadow_66_15"/>
<feBlend mode="normal" in="SourceGraphic" in2="effect1_dropShadow_66_15" result="shape"/>
</filter>
<filter id="filter7_d_66_15" x="23.9088" y="292" width="82.1824" height="73.1246" filterUnits="userSpaceOnUse" color-interpolation-filters="sRGB">
<feFlood flood-opacity="0" result="BackgroundImageFix"/>
<feColorMatrix in="SourceAlpha" type="matrix" values="0 0 0 0 0 0 0 0 0 0 0 0 0 0 0 0 0 0 127 0" result="hardAlpha"/>
<feOffset dy="4"/>
<feGaussianBlur stdDeviation="2"/>
<feComposite in2="hardAlpha" operator="out"/>
<feColorMatrix type="matrix" values="0 0 0 0 0 0 0 0 0 0 0 0 0 0 0 0 0 0 0.25 0"/>
<feBlend mode="normal" in2="BackgroundImageFix" result="effect1_dropShadow_66_15"/>
<feBlend mode="normal" in="SourceGraphic" in2="effect1_dropShadow_66_15" result="shape"/>
</filter>
<filter id="filter8_d_66_15" x="19.9088" y="428" width="82.1824" height="73.1246" filterUnits="userSpaceOnUse" color-interpolation-filters="sRGB">
<feFlood flood-opacity="0" result="BackgroundImageFix"/>
<feColorMatrix in="SourceAlpha" type="matrix" values="0 0 0 0 0 0 0 0 0 0 0 0 0 0 0 0 0 0 127 0" result="hardAlpha"/>
<feOffset dy="4"/>
<feGaussianBlur stdDeviation="2"/>
<feComposite in2="hardAlpha" operator="out"/>
<feColorMatrix type="matrix" values="0 0 0 0 0 0 0 0 0 0 0 0 0 0 0 0 0 0 0.25 0"/>
<feBlend mode="normal" in2="BackgroundImageFix" result="effect1_dropShadow_66_15"/>
<feBlend mode="normal" in="SourceGraphic" in2="effect1_dropShadow_66_15" result="shape"/>
</filter>
</defs>
</svg>
